<?xml version="1.0" encoding="UTF-8" standalone="no"?>
<!-- Generator: Adobe Illustrator 16.0.0, SVG Export Plug-In . SVG Version: 6.00 Build 0)  -->

<svg
   version="1.1"
   id="Layer_1"
   x="0px"
   y="0px"
   width="973.14807"
   height="575.00427"
   viewBox="0 0 912.32634 539.06654"
   enable-background="new 0 0 722.569 346.291"
   xml:space="preserve"
   inkscape:version="1.3.2 (091e20ef0f, 2023-11-25, custom)"
   sodipodi:docname="gis-toolchain.svg"
   inkscape:export-filename="E:\Google Drive\QGIS_Graphics\Logo candidate 3.0 final files\qgis-logo_anita0.png"
   inkscape:export-xdpi="278"
   inkscape:export-ydpi="278"
   xmlns:inkscape="http://www.inkscape.org/namespaces/inkscape"
   xmlns:sodipodi="http://sodipodi.sourceforge.net/DTD/sodipodi-0.dtd"
   xmlns="http://www.w3.org/2000/svg"
   xmlns:svg="http://www.w3.org/2000/svg"
   xmlns:rdf="http://www.w3.org/1999/02/22-rdf-syntax-ns#"
   xmlns:cc="http://creativecommons.org/ns#"
   xmlns:dc="http://purl.org/dc/elements/1.1/"><metadata
     id="metadata46"><rdf:RDF><cc:Work
         rdf:about=""><dc:format>image/svg+xml</dc:format><dc:type
           rdf:resource="http://purl.org/dc/dcmitype/StillImage" /></cc:Work></rdf:RDF></metadata><defs
     id="defs44"><marker
       style="overflow:visible"
       id="Triangle"
       refX="0"
       refY="0"
       orient="auto-start-reverse"
       inkscape:stockid="Triangle arrow"
       markerWidth="4"
       markerHeight="4"
       viewBox="0 0 1 1"
       inkscape:isstock="true"
       inkscape:collect="always"
       preserveAspectRatio="xMidYMid"
       markerUnits="userSpaceOnUse"><path
         transform="scale(0.5)"
         style="fill:context-stroke;fill-rule:evenodd;stroke:context-stroke;stroke-width:1pt"
         d="M 5.77,0 -2.88,5 V -5 Z"
         id="path135" /></marker><linearGradient
       id="gradientFill-1"
       x1="0.7414425"
       x2="590.86261"
       y1="3.6658268"
       y2="593.78699"
       gradientUnits="userSpaceOnUse"
       spreadMethod="pad"
       gradientTransform="scale(1.2219423,0.81836924)"><stop
         offset="0"
         stop-color="rgb(203,206,208)"
         stop-opacity="1"
         id="stop1" /><stop
         offset="1"
         stop-color="rgb(132,131,139)"
         stop-opacity="1"
         id="stop2" /></linearGradient><linearGradient
       id="gradientFill-2"
       x1="301.02603"
       x2="703.0675"
       y1="151.4006"
       y2="553.44208"
       gradientUnits="userSpaceOnUse"
       spreadMethod="pad"
       gradientTransform="scale(0.9899476,1.0101545)"><stop
         offset="0"
         stop-color="rgb(39,109,195)"
         stop-opacity="1"
         id="stop3" /><stop
         offset="1"
         stop-color="rgb(22,92,170)"
         stop-opacity="1"
         id="stop4" /></linearGradient><marker
       style="overflow:visible"
       id="Triangle-6"
       refX="0"
       refY="0"
       orient="auto-start-reverse"
       inkscape:stockid="Triangle arrow"
       markerWidth="4"
       markerHeight="4"
       viewBox="0 0 1 1"
       inkscape:isstock="true"
       inkscape:collect="always"
       preserveAspectRatio="xMidYMid"
       markerUnits="userSpaceOnUse"><path
         transform="scale(0.5)"
         style="fill:context-stroke;fill-rule:evenodd;stroke:context-stroke;stroke-width:1pt"
         d="M 5.77,0 -2.88,5 V -5 Z"
         id="path135-2" /></marker></defs><sodipodi:namedview
     pagecolor="#ffffff"
     bordercolor="#666666"
     borderopacity="1"
     objecttolerance="10"
     gridtolerance="10"
     guidetolerance="10"
     inkscape:pageopacity="0"
     inkscape:pageshadow="2"
     inkscape:window-width="2552"
     inkscape:window-height="1376"
     id="namedview42"
     showgrid="false"
     inkscape:zoom="1.1632383"
     inkscape:cx="379.54389"
     inkscape:cy="300.88417"
     inkscape:window-x="2560"
     inkscape:window-y="32"
     inkscape:window-maximized="0"
     inkscape:current-layer="Layer_1"
     fit-margin-top="0"
     fit-margin-right="0"
     fit-margin-bottom="0"
     fit-margin-left="0"
     inkscape:showpageshadow="0"
     inkscape:pagecheckerboard="0"
     inkscape:deskcolor="#d1d1d1" /><polygon
     points="198.306,162 176,162 176,183.433 195,202.37 195,180 216.513,180 "
     id="polygon3"
     style="fill:#ee7913"
     transform="translate(285.81368,228.76561)" /><linearGradient
     id="SVGID_1_"
     gradientUnits="userSpaceOnUse"
     x1="350.02249"
     y1="247.7832"
     x2="347.78201"
     y2="100.4837"
     gradientTransform="translate(309.45172,422.05451)"><stop
       offset="0"
       style="stop-color:#589632"
       id="stop6" /><stop
       offset="1"
       style="stop-color:#93B023"
       id="stop8" /></linearGradient><linearGradient
     id="SVGID_2_"
     gradientUnits="userSpaceOnUse"
     x1="459.22171"
     y1="246.1226"
     x2="456.98129"
     y2="98.822403"
     gradientTransform="translate(309.45172,422.05451)"><stop
       offset="0"
       style="stop-color:#589632"
       id="stop13" /><stop
       offset="1"
       style="stop-color:#93B023"
       id="stop15" /></linearGradient><linearGradient
     id="SVGID_3_"
     gradientUnits="userSpaceOnUse"
     x1="553.50677"
     y1="244.6875"
     x2="551.26642"
     y2="97.388199"
     gradientTransform="translate(309.45172,422.05451)"><stop
       offset="0"
       style="stop-color:#589632"
       id="stop20" /><stop
       offset="1"
       style="stop-color:#93B023"
       id="stop22" /></linearGradient><linearGradient
     id="SVGID_4_"
     gradientUnits="userSpaceOnUse"
     x1="234.4702"
     y1="250.03419"
     x2="232.211"
     y2="101.4977"><stop
       offset="0"
       style="stop-color:#589632"
       id="stop27" /><stop
       offset="1"
       style="stop-color:#93B023"
       id="stop29" /></linearGradient><polygon
     points="204,189 204,211.34 240.782,248 264,248 264,226.946 225.617,189 "
     id="polygon31"
     style="fill:url(#SVGID_4_)"
     transform="translate(285.81368,228.76561)" /><polygon
     points="216.513,180 195,180 195,202.37 204,211.34 204,189 225.617,189 "
     id="polygon33"
     style="fill:#f0e64a"
     transform="translate(285.81368,228.76561)" /><linearGradient
     id="SVGID_5_"
     gradientUnits="userSpaceOnUse"
     x1="188.7529"
     y1="250.2354"
     x2="186.5125"
     y2="102.9362"
     gradientTransform="translate(285.81368,229.36002)"><stop
       offset="0"
       style="stop-color:#589632"
       id="stop36" /><stop
       offset="1"
       style="stop-color:#93B023"
       id="stop38" /></linearGradient><path
     d="m 483.86568,446.22402 c -3.259,0.75 -6.648,1.157 -10.144,1.157 -25.005,0 -46.271,-20.562 -46.271,-47.222 0,-26.66 21.032,-46.769 46.271,-46.769 25.239,0 45.336,20.108 45.336,46.769 0,4.336 -0.54,8.508 -1.539,12.46 l 23.144,23.14 c 5.967,-10.455 9.305,-22.611 9.305,-35.778 0,-41.09 -32.791,-71.856 -76.714,-71.856 -43.722,0 -76.512,30.564 -76.512,71.856 0,41.494 32.791,72.666 76.512,72.666 11.287,0 21.835,-2.076 31.284,-5.854 z"
     id="path40"
     inkscape:connector-curvature="0"
     style="fill:url(#SVGID_5_)" /><path
     d="m 461.81368,390.76561 88,86 v -21.05469 l -38.38281,-37.94531 -9.10352,-9 -18.20703,-18 z"
     id="polygon4174"
     style="fill:#ffffff;fill-opacity:0.172549"
     inkscape:connector-curvature="0"
     sodipodi:nodetypes="ccccccc" /><g
     id="g1"
     transform="matrix(0.26443671,0,0,0.26443671,-0.23957966,327.33171)"><path
       d="M 361.453,485.937 C 162.329,485.937 0.906,377.828 0.906,244.469 0.906,111.109 162.329,3 361.453,3 560.578,3 722,111.109 722,244.469 722,377.828 560.578,485.937 361.453,485.937 Z M 416.641,97.406 c -151.352,0 -274.047,73.908 -274.047,165.078 0,91.17 122.695,165.078 274.047,165.078 151.351,0 263.046,-50.529 263.046,-165.078 0,-114.513 -111.695,-165.078 -263.046,-165.078 z"
       fill="url(#gradientFill-1)"
       fill-rule="evenodd"
       id="path4"
       style="fill:url(#gradientFill-1)" /><path
       d="m 550,377 c 0,0 21.822,6.585 34.5,13 4.399,2.226 12.01,6.668 17.5,12.5 5.378,5.712 8,11.5 8,11.5 L 696,559 557,559.062 492,437 c 0,0 -13.31,-22.869 -21.5,-29.5 -6.832,-5.531 -9.745,-7.5 -16.5,-7.5 -4.702,0 -33.026,0 -33.026,0 L 421,558.974 298,559.026 V 152.938 h 247 c 0,0 112.5,2.029 112.5,109.062 0,107.033 -107.5,115 -107.5,115 z m -53.5,-135.976 -74.463,-0.048 -0.037,69.05 74.5,-0.024 c 0,0 34.5,-0.107 34.5,-35.125 0,-35.722 -34.5,-33.853 -34.5,-33.853 z"
       fill="url(#gradientFill-2)"
       fill-rule="evenodd"
       id="path5"
       style="fill:url(#gradientFill-2)" /></g><g
     id="g5378"
     inkscape:label="color"
     transform="matrix(2.1612623,0,0,2.1612623,757.55699,320.62502)"><path
       id="path5380"
       sodipodi:nodetypes="cccccccccccccccccccccccccccccccccccccccccccccccccccccccccccccccccccccccccccccccccccccccccccccccccccccccccccccccccccccccccccccccccccccccccccccccccccccccccccccccccccccccccccccccccccccccccccccccccccccccccccccccccccccccccccccccccccccccccccccccccccccccccccc"
       inkscape:connector-curvature="0"
       fill="#0b8b36"
       d="m 33.571,68.116 1.581,1.605 0.539,-0.58 -0.964,-7.18 0.082,-1.16 0.491,-1.732 0.516,-1.594 0.562,-1.252 1.827,3.068 1.78,3.244 0.395,1.904 2.484,-2.438 1.255,-9.434 2.635,-12.766 1.698,-8.666 3.443,-6.828 0.516,-1.418 0.188,-0.83 0.07,-1.348 -0.211,-1.078 -0.492,-0.971 -0.901,-0.902 0.047,0.246 0.444,0.457 0.41,0.959 0.047,0.773 -0.562,1.547 -0.726,1.662 -1.558,2.799 0.866,-6.465 0.246,-3.396 -0.316,-0.059 -1.745,11.619 -0.327,0.586 -2.87,5.398 -3.665,7.262 -3.08,6.301 -1.71,4.391 -0.973,-1.662 0.609,-1.254 3.35,-6.43 3.396,-5.668 1.417,-2.764 1.171,-2.295 0.316,-0.785 0.07,-0.762 -0.141,-0.586 H 45.64 l -0.105,0.516 -0.584,1.35 -1.417,2.389 -4.052,6.23 -2.308,3.42 -1.581,2.799 0.973,-9.639 0.362,-4.111 0.152,-8.689 h -0.023 l 0.07,-0.293 0.223,-0.539 0.176,-0.492 0.211,-0.361 v -0.715 l -0.07,-0.902 0.316,-0.586 -0.141,-0.855 v -0.643 l 0.117,-0.363 0.246,-0.809 0.176,-0.434 -0.328,-0.539 0.281,-0.537 -0.445,-0.316 -0.27,-0.809 0.387,-0.633 -0.539,-0.176 -0.234,-0.422 v -0.363 l -0.246,-0.408 -0.245,-0.223 0.023,-0.34 V 11.766 L 36.648,10.746 36.566,10.16 36.203,9.89 36.027,9.576 35.617,9.377 35.371,8.932 35.418,8.428 35.371,7.912 35.102,7.467 34.633,7.373 34.2,7.221 33.977,6.905 33.825,6.565 33.486,6.788 33.345,7.222 33.275,7.691 33.052,8.429 32.9,8.182 32.97,9.084 32.923,9.283 v 0.338 l 0.129,0.27 0.117,0.363 0.223,0.293 0.094,0.129 0.07,0.34 -0.281,0.211 0.117,0.305 -0.27,0.34 0.047,0.27 0.07,0.27 0.223,0.27 0.198,0.244 0.27,0.234 0.047,0.199 -0.094,0.293 -0.223,0.199 -0.104,0.164 0.035,0.422 0.339,0.223 0.199,0.211 0.117,0.422 -0.363,0.434 -0.059,0.303 0.152,0.34 0.223,0.27 v 0.27 l 0.164,0.211 0.152,0.176 0.117,0.199 -0.07,0.34 0.223,0.316 0.199,0.047 0.07,0.152 -0.07,0.27 0.188,0.387 0.198,0.15 0.152,0.316 -0.152,0.539 0.223,0.492 0.211,0.094 0.105,0.223 0.047,0.633 -0.117,0.27 -0.105,0.316 0.316,1.592 0.562,0.363 -0.047,6.91 -0.656,7.459 -0.387,4.322 -0.632,5.246 -0.246,0.633 -2.085,-3.573 -0.714,-4.789 -0.926,-7.777 -1.101,-7.213 0.082,6.582 0.387,5.445 0.667,5.188 -4.649,-7.367 -6.676,-10.012 -1.534,-2.133 h -0.129 l 0.445,1.277 0.832,2.072 1.218,2.764 2.131,4.568 1.289,2.295 1.593,2.764 3.291,5.213 2.975,4.731 0.456,4.24 1.418,9.686 -10e-4,-0.006 -1.639,-5.09 -3.467,-8.537 -2.764,-5.739 -3.666,-5.961 -1.862,-2.447 -1.487,-1.488 -2.424,-2.248 1.007,1.24 1.628,1.664 0.96,1.078 0.633,1.1 0.761,1.219 1.242,2.131 1.077,1.979 1.101,2.449 1.347,3.268 2.636,6.817 2.764,7.189 1.663,5.084 z M 28.722,63.288 28.24,61.997 27.349,60.311 25.406,56.598 22.665,51.655 20.733,48.481 18.94,45.74 l -0.973,-1.346 -0.808,-0.809 1.394,2.646 1.276,2.963 1.921,4.369 0.843,1.932 0.845,2.512 z M 17.16,43.586 17.137,43.539 17.067,43.492 Z m 29.407,-8.818 -0.467,1.955 -2.12,8.479 -1.03,4.815 -1.078,5.82 -1.194,3.795 -0.422,-0.984 -2.717,-5.035 0.914,-2.121 2.975,-6.231 1.593,-3.35 2.131,-4.496 z m 2.636,6.312 -0.387,2.248 -1.101,3.736 -1.102,2.764 -1.218,3.596 -0.644,3.537 -0.609,3.76 2.202,-2.238 0.093,-1.146 0.246,-1.992 0.586,-2.811 1.276,-5.024 0.586,-3.725 z m -15.764,10.247 0.89,1.488 -0.188,3.467 L 34,56.387 Z m 1.499,2.496 0.515,0.854 -0.397,0.938 -0.293,0.211 z" /><path
       id="path5382"
       inkscape:connector-curvature="0"
       d="m 7.222,44.352 -1.125,1.125 8.444,8.444 -1.112,1.113 8.432,8.432 -1.124,1.125 L 35.154,79.007 49.582,64.59 48.458,63.465 56.89,55.033 55.778,53.92 64.222,45.476 63.097,44.351 35.153,72.284 Z" /><path
       id="path5384"
       inkscape:connector-curvature="0"
       d="M 35.153,0 0.159,35.006 35.153,70.012 70.159,35.006 Z m 0,0.621 L 69.538,35.006 35.153,69.391 0.769,35.006 Z" /><g
       id="g5386"
       transform="translate(268.5353,413.93109)"><path
         id="path5388"
         inkscape:connector-curvature="0"
         d="m -260.599,-337.642 v 0.469 h 22.604 v -0.469 z" /><path
         id="path5390"
         inkscape:connector-curvature="0"
         d="m -228.757,-337.642 v 0.469 h 22.603 v -0.469 z" /></g></g><path
     fill="#000000"
     d="m 481.37567,42.961099 c -44.15087,0 -80.12784,17.57194 -80.12784,39.11424 0,21.543921 35.97697,39.088331 80.12784,39.088331 44.14845,0 80.12541,-17.54441 80.12541,-39.088331 0,-21.54392 -35.97696,-39.11424 -80.12541,-39.11424 z m 0,10.72743 c 32.44138,0 58.13863,12.55555 58.13863,28.38681 0,15.83126 -25.69725,28.717131 -58.13863,28.717131 -32.4438,0 -58.85109,-12.885871 -58.85109,-28.717131 0,-15.82964 26.40729,-28.38843 58.85109,-28.38681 z M 340.3484,65.705679 c -10.72096,-0.0761 -26.09721,11.81233 -34.25492,30.51287 -35.05643,80.349681 -7.75856,291.215361 71.14433,284.961061 -17.8132,-40.8792 -35.46125,-87.42492 -45.9215,-136.62295 21.32289,58.69241 58.55963,109.76794 95.40937,97.30469 -25.92152,-32.53448 -53.47362,-70.65127 -72.89148,-113.62334 28.34956,47.90912 69.11705,85.70044 99.60724,69.2223 -24.07964,-21.52206 -49.84653,-46.57244 -71.90375,-75.49683 32.09891,30.2635 70.51121,49.66193 90.87957,30.56306 -38.61067,-17.05864 -76.40361,-43.45217 -101.25239,-72.66317 -13.20648,-15.52522 -22.82716,-31.89083 -26.49068,-48.57705 -1.82974,-8.34392 -2.03052,-16.83681 -0.3789,-25.04794 0.0162,-0.0769 0.0348,-0.1506 0.051,-0.2267 0.006,-0.0356 0.0178,-0.0672 0.0243,-0.10201 3.27895,-17.216521 12.17908,-28.670991 3.64328,-37.218121 -2.01109,-2.01352 -4.66339,-2.9632 -7.66707,-2.98506 z m 281.47,0 c -3.00368,0.0219 -5.63008,0.97154 -7.64117,2.98587 -6.61944,6.62753 -2.76565,15.02974 0.83391,26.49069 4.98157,11.486041 5.7839,23.937151 3.11297,36.103271 -3.6627,16.68622 -13.31011,33.05182 -26.51497,48.57705 -24.9346,29.31301 -62.88299,55.78831 -101.63128,72.83966 20.41855,18.7896 58.68269,-0.57482 90.67716,-30.74117 -22.05803,28.92601 -47.82411,53.9772 -71.90537,75.49683 30.49182,16.47976 71.25929,-21.31156 99.60967,-69.22067 -19.41868,42.97206 -46.97077,81.08885 -72.89148,113.62414 36.84974,12.46406 74.06218,-38.61066 95.38427,-97.30469 -10.45864,49.19884 -28.08239,95.74537 -45.8956,136.62295 78.9029,6.25511 106.17486,-204.61058 71.12004,-284.961061 -8.15851,-18.69974 -23.53558,-30.58735 -34.25734,-30.51125 z m -17.9897,59.887411 c -81.28317,55.23858 -162.51695,66.76268 -243.89727,4.42699 3.25466,12.67456 11.24558,26.50121 22.7713,40.05178 23.41576,27.52699 61.10993,53.74079 98.69723,69.87808 37.5873,-16.13729 75.28147,-42.35109 98.69723,-69.87808 12.12807,-14.2598 20.35216,-28.81753 23.25222,-42.02482 0.18054,-0.82581 0.3368,-1.64109 0.4801,-2.45476 z"
     id="path1-5"
     style="opacity:0.4;fill:#ffe680;stroke-width:0.809615" /><g
     style="overflow:visible;opacity:0.6"
     id="g3"
     transform="matrix(0.44634711,0,0,0.44634711,323.26677,0)"><g
       id="Layer_5">
</g><g
       id="Layer_6">
	<ellipse
   fill="#71c9f1"
   cx="346.517"
   cy="406.61801"
   rx="224.981"
   ry="225.439"
   id="ellipse1" />
	<path
   fill="#359946"
   d="m 501.978,457.39 c -7.509,-0.713 -16.236,0.223 -23.391,-2.537 -8.306,-3.204 -4.547,-10.3 -9.413,-16.078 -3.78,-4.487 -11.079,-5.93 -16.188,-8.536 -6.96,-3.549 -13.698,-7.636 -21.302,-9.71 -7.862,-2.143 -17.271,0.333 -24.15,4.177 -2.157,1.205 -7.1,5.316 -9.661,3.283 -2.681,-2.127 2.007,-10.977 -4.186,-8.791 -5.667,2 -8.333,10.666 -13,10 -5.563,-0.797 -10.045,-2.484 -15.7,-2.025 -4.935,0.4 -9.862,1.645 -13.318,-2.984 -3.655,-4.897 -0.294,-11.042 -2.59,-16.06 -3.943,-8.621 -14.11,-0.312 -20.288,-4.171 4.428,-3.34 8.556,-9.208 8.812,-14.902 0.24,-5.296 -3.365,-9.285 -8.459,-5.876 -2.794,1.87 -2.717,5.298 -4.786,7.61 -3.579,3.998 -22.032,5.008 -23.392,-2.131 -1.274,-6.693 -3.8,-19.088 -0.613,-25.461 2.46,-4.92 5.587,-10.722 11.14,-12.62 5.662,-1.937 13.416,0.266 19.726,-1.347 5.419,-1.385 11.471,-3.187 16.794,-0.577 5.431,2.663 6.361,8.669 8.675,13.876 1.333,3 6.333,7 4.998,-1.009 -1.043,-6.257 -6.906,-13.907 -3.835,-20.018 2.753,-5.469 9.375,-7.259 12.905,-11.957 3.462,-4.605 0.965,-10.548 3.581,-15.406 2.607,-4.842 8.754,-6.369 11.152,-11.427 1.169,-2.466 6.492,-16.992 11.812,-12.393 2.256,1.95 0.915,4.433 4.449,1.971 1.443,-1.005 6.797,-4.77 3.601,-6.54 -2.938,-1.626 -8,0.977 -9.614,-3.112 -2.782,-7.047 10.244,-10.657 11.95,-15.776 1,-3 0.999,-4 -6.667,-7 -5.263,-2.06 -10.834,-13.366 -16.136,-13.021 -2.959,0.193 -2.355,3.443 -4.236,3.981 -4.458,1.275 -6.904,-5.511 -9.975,-7.852 -2.22,-1.691 -10.525,-5.292 -13.255,-3.211 -6.569,5.007 11.048,30.222 -1.377,34.982 -3.051,1.169 -9.481,-11.799 -13.748,-13.541 -6.876,-2.808 -18.555,-1.837 -18.288,-12.673 0.259,-10.54 13.503,-7.468 16.641,-14.656 2.782,-6.372 -7.008,-16.185 -12.755,-14.704 -0.313,1.593 0.765,5.348 -0.234,6.547 -3.135,3.749 -22.685,0.086 -26.976,-1.256 -7.398,-2.314 -15.241,-3.933 -22.041,-7.793 -5.896,-3.347 -9.099,-9.623 -16.62,-6.803 -5.333,2 -8.581,4.748 -13.247,6.749 -4.513,1.935 -9.57,2.161 -14.054,4.299 -4.543,2.167 -1.849,10.273 -5.445,14.193 -4.375,4.767 -11.717,4.507 -17.641,5.074 -1.479,0.142 -11.102,0.365 -11.364,1.94 -0.377,2.465 24.337,-0.224 26.059,-0.717 3.962,-1.134 6.864,-4.043 10.679,-5.509 4.563,-1.753 10.064,-2.544 12.391,2.452 2.72,5.866 0.49,11.602 -1.584,17.235 -2.341,6.359 -1.505,7.897 0.193,14.208 1.063,3.951 0.289,6.358 -1.373,10.062 -4.133,9.214 -15.476,25.558 -11.28,36.347 3.218,8.275 10.404,15.299 16.03,21.95 3.825,4.522 3.212,8.959 5.922,14.176 2.562,4.931 6.369,9.652 9.468,14.285 4.448,6.649 5.391,15.301 10.732,21.386 4.689,5.344 18.895,14.808 26.259,15.046 2.229,0.071 4.227,-2.034 6.38,-1.789 6.695,0.77 10.746,7.212 16.557,9.839 5.312,2.401 12.593,0.383 17.068,4.591 5.602,5.266 6.109,13.242 14.608,15.555 4.236,1.151 9.679,-0.793 13.622,1.16 11.421,5.661 3.7,18.943 0.003,26.387 -3.837,7.723 -7.906,16.742 -6.265,25.596 1.417,7.646 7.29,12.614 11.329,18.841 3.502,5.398 4.498,12.508 10.363,16.07 4.594,2.789 13.605,2.979 16.249,8.182 2.943,5.793 -3.647,14.68 -5.068,20.259 -1.802,7.076 -3.995,14.092 -6.196,21.056 -2.197,6.953 -5.879,11.785 -8.91,18.124 -2.504,5.236 -9.558,25.709 1.111,24.759 15.161,-1.355 20.782,-21.278 33.737,-26.138 2.666,-1 25,-17.666 29,-21 4,-3.332 14,-7.332 15.333,-11.332 1.333,-4 6.333,-7 8,-14.001 1.917,-8.052 14.624,-10.232 20.124,-15.672 7.525,-7.445 11.274,-18.378 15.207,-27.991 3.35,-8.187 10.577,-14.424 12.632,-23.294 2.588,-11.177 -6.133,-13.849 -16.671,-14.851 z"
   id="path1" />
	<path
   fill="#359946"
   d="m 381.378,381.335 c -1.71,-0.46 -3.672,-0.411 -5.432,-0.978 -2.658,-0.856 -4.965,-2.606 -7.574,-3.604 -2.751,-1.053 -5.575,-1.834 -8.521,-2.048 -1.604,-0.117 -3.228,-0.049 -4.813,0.229 -1.477,0.259 -3.017,0.697 -4.387,1.315 -0.578,0.261 -1.629,0.807 -1.259,1.641 0.655,1.472 4.881,0.516 6.075,0.517 4.407,0.004 9.582,-0.109 13.225,2.781 0.947,0.752 1.812,1.611 2.563,2.56 0.613,0.771 1.158,1.651 2.077,2.095 0.902,0.436 1.856,-0.061 2.698,-0.418 1.194,-0.506 2.403,-0.981 3.641,-1.37 1.015,-0.318 2.294,-0.438 3.014,-1.312 0.6,-0.728 -0.414,-1.167 -1.307,-1.408 z"
   id="path2" />
	<path
   fill="#359946"
   d="m 401.687,385.114 c -2.328,-0.596 -4.999,2.082 -8.334,0.75 -3.021,-1.209 -3.718,-2.699 -5.646,-3.062 -1.204,-0.227 -3.259,0.418 -1.688,1.812 2.719,2.412 4.67,4.588 8,6.084 2.071,0.93 7.254,0.213 9.25,-0.918 3.418,-1.934 2.001,-3.75 -1.582,-4.666 z"
   id="path3" />
	<path
   fill="#359946"
   d="m 417.418,273.486 c -0.908,-0.569 -4.107,-7.395 -6.731,-1.956 -3.417,7.083 9.064,8.755 10.345,7.231 1.281,-1.524 -3.261,-5.054 -3.614,-5.275 z"
   id="path4-3" />
	<path
   fill="#359946"
   d="m 360.747,219.091 c -1.993,-0.813 -19.86,-8.049 -20.452,-2.425 -0.387,3.669 6.869,4.285 9.104,4.869 3.51,0.918 9.196,3.659 10.155,7.568 0.661,2.702 -3.062,6.094 2.133,6.094 2.333,0 7.333,1.333 7.333,1.333 0,0 2.331,1.332 4.33,1 5.634,-0.933 -3.676,-9.816 -5.043,-11.32 -2.56,-2.815 -3.88,-5.617 -7.56,-7.119 z"
   id="path5-6" />
	<path
   fill="#359946"
   d="m 309.146,212.979 c -1.678,-0.62 -5.983,-1.21 -6.354,-1.005 -3.8,2.109 -3.879,3.164 0.234,5.171 3.782,1.846 7.568,3.359 11.677,4.333 2.281,0.541 6.878,0.554 4.704,-3.035 -1.836,-3.028 -7.161,-4.319 -10.261,-5.464 z"
   id="path6" />
	<path
   fill="#359946"
   d="m 348.823,199.695 c -1.944,-1.491 -4.894,0.116 -6.754,0.966 -4.292,1.959 -8.718,0.723 -13.063,2.073 -1.127,0.35 -2.913,1.235 -3.002,2.619 -0.118,1.815 2.478,2.298 3.74,2.786 1.955,0.756 3.552,2.407 5.803,1.95 1.804,-0.366 3.223,-1.749 5.056,-2.105 2.112,-0.41 4.178,-0.647 5.794,-2.204 1.193,-1.149 4.435,-4.535 2.426,-6.085 z"
   id="path7" />
	<path
   fill="#359946"
   d="m 409.354,226.53 c -0.277,-1.943 0.044,-3.902 -0.289,-5.833 -1.829,-10.604 -14.968,-16.208 -23.786,-19.79 -3.56,-1.446 -7.52,-2.477 -11.37,-2.703 -5.047,-0.295 -11.717,-0.849 -16.163,2.083 -1.566,1.033 -2.45,2.509 -2.168,4.596 0.491,3.619 7.262,2.939 9.767,3.551 7.157,1.748 13.058,5.072 18.678,9.865 8.422,7.184 15.936,13.401 26.332,17.563 1.666,0.667 4.991,1.393 4.261,-1.401 -1.031,-3.936 -4.595,-3.264 -5.262,-7.931 z"
   id="path8" />
	<path
   fill="#359946"
   d="m 526.982,282.734 c 0.352,6.433 1.142,12.889 3.198,19.021 0.987,2.942 2.672,5.6 3.723,8.518 2.473,6.87 1.067,14.3 2.423,21.351 1.335,6.941 5.996,12.545 8.022,19.24 1.876,6.197 0.695,13.385 3.337,19.332 1.507,3.391 4.328,5.977 6.224,9.145 2.399,4.01 5.111,14.822 10.22,16.139 3.615,0.932 3.283,-7.537 3.784,-9.68 0.519,-2.219 1.267,-4.58 1.886,-6.961 -4.898,-39.934 -20.21,-76.639 -43.142,-107.295 -0.017,0.349 0.138,7.751 0.325,11.19 z"
   id="path9" />
	<path
   fill="#359946"
   d="m 476.633,224.922 c 0.477,2.124 1.054,4.656 -0.107,5.572 -2.11,1.665 -5.297,-1.39 -6.854,-2.635 -1.262,-1.009 -3.767,-3.708 -5.544,-2.832 -3.024,1.491 7.355,8.955 8.257,9.812 1.441,1.37 2.495,3.188 4.04,4.431 3.075,2.472 3.656,-0.448 5.861,-1.96 3.364,-2.308 6.416,1.998 8.007,4.324 2.456,3.59 4.026,7.599 6.747,11.036 3.116,3.936 6.173,7.852 8.763,12.208 2.714,4.562 5.375,9.192 8.843,13.237 2.25,2.625 6.559,4.244 7.52,3.403 1.647,-1.44 -0.844,-4.196 -1.373,-5.637 -1.469,-4 -4.137,-7.383 -6.099,-11.132 -1.967,-3.76 -4.444,-12.495 -4.486,-12.773 -10.307,-10.95 -21.691,-20.868 -33.99,-29.577 -0.015,0.604 0.188,1.518 0.415,2.523 z"
   id="path10-7" />
	<path
   fill="#359946"
   d="m 419.521,197.116 c 4.331,3.715 9.838,5.95 15.165,8.081 3.333,1.333 4.333,3 8.333,5 4.945,2.473 9.567,5.014 14.826,6.81 1.517,0.518 5.319,2.592 6.841,1.523 0.674,-0.474 0.79,-1.88 0.596,-3.397 -15.574,-9.72 -32.418,-17.584 -50.229,-23.287 0.157,0.317 2.928,3.95 4.468,5.27 z"
   id="path11" />
	<path
   fill="#cccccc"
   d="m 56.772,483.438 h 65.061 V 589.903 C 94.52,602.114 57.77,605.364 30.77,584.864 7.581,567.256 -5.479,522.768 2.21,481.368 c 7.689,-41.4 31.643,-63.137 56.78,-70.381 25.137,-7.246 53.529,0.877 61.512,6.357 l -10.055,47.908 c -11.178,-6.139 -20.737,-9.535 -32.974,-7.246 -29.954,5.607 -24.806,69.16 -17.152,82.807 6.198,11.051 11.09,10.201 11.09,10.201 l 0.148,-20.848 -14.787,-0.148 z"
   id="path12" />
	<path
   fill="#cccccc"
   d="m 225.77,420.364 c -22.75,-15.25 -65.25,-14.25 -89.5,-6.25 l 0.25,182 c 23.75,3.75 65.75,6.5 88.75,-10.25 24.713,-17.998 33.25,-48.25 33,-84.5 -0.257,-37.25 -9.75,-65.75 -32.5,-81 z m -21.5,83.25 c -0.5,44 -15,47.75 -15,47.75 v -96 c 0,0 16,3.25 15,48.25 z"
   id="path13" />
	<polygon
   fill="#cccccc"
   points="323.77,559.614 331.02,597.864 383.27,597.614 346.52,409.614 291.02,409.364 250.27,597.864 302.27,597.864 310.02,559.614 "
   id="polygon13" />
	<polygon
   fill="#cccccc"
   points="485.52,597.614 485.52,550.114 442.52,550.114 442.52,409.364 389.52,409.364 389.52,597.614 "
   id="polygon14" />
	<g
   id="g17">
		<path
   d="m 112.02,583.364 c -7.25,3 -22.75,6 -35,6 -19.25,0 -33.75,-5.5 -45,-16.75 -14.5,-14 -22.25,-39 -21.75,-68 0.75,-61.25 35.75,-86.75 71.5,-86.75 12.75,0 22.25,2.5 27.5,5 l -5.75,28.25 c -4.75,-2.25 -11,-3.75 -19.25,-3.75 -22.25,0 -40,15.25 -40,59.25 0,40.5 15.75,55 31,55 3,0 5.25,-0.25 6.5,-0.75 v -40.75 h -15 v -26.75 h 45.25 z"
   id="path14" />
		<path
   d="m 146.516,421.864 c 8.25,-2 20.25,-3.25 33.25,-3.25 21.25,0 36,5 46.75,15 14.5,13 22,35.25 22,68 0,34 -8.75,58.25 -23.5,71.25 -11.25,11 -28,16.25 -51.5,16.25 -10.25,0 -20.5,-1 -27,-1.75 z m 32.75,140 c 1.5,0.5 4,0.5 5.75,0.5 15.75,0 29.5,-15.5 29.5,-62 0,-34.5 -9,-55.5 -28.75,-55.5 -2.25,0 -4.5,0 -6.5,0.75 z"
   id="path15" />
		<path
   d="m 302.018,549.364 -7.5,38.5 h -31.75 l 36.5,-168.5 h 39.25 l 32.75,168.5 h -31.75 l -7.25,-38.5 z m 27.25,-25.5 -5.5,-35.25 c -1.75,-10.25 -4,-27 -5.5,-38.25 h -0.75 c -1.75,11.25 -4.25,28.75 -6,38.5 l -6.25,35 z"
   id="path16" />
		<path
   d="m 399.766,419.364 h 32.75 v 140.75 h 43.25 v 27.75 h -76 z"
   id="path17-5" />
	</g>
</g><g
       id="Layer_3">
	<path
   fill="#ed1e3a"
   d="m 182.65,173.129 -2.333,6.184 186.476,68.695 c 0.404,-2.107 1.5,-4.08 2.162,-6.247 z"
   id="path18" />
	<path
   fill="#ed1e3a"
   d="m 180.528,179.824 -33.894,195.825 c 2.202,1.482 4.432,2.82 6.716,4.102 l 34.414,-198.825 z"
   id="path19" />
	<path
   fill="#ed1e3a"
   d="m 244.787,288.181 c -66.626,41.209 -91.718,80.856 -96.071,88.376 1.7,1.018 3.417,1.962 5.158,2.872 10.307,-16.118 37.901,-52.546 94.204,-86.861 51.214,-31.214 96.002,-40.895 117.844,-43.891 0.354,-1.78 1.219,-3.4 2.071,-5.071 -14.297,1.719 -67.518,10.131 -123.206,44.575 z"
   id="path20" />
	<polygon
   fill="#666667"
   points="263.86,51.352 183.091,103.005 168.93,51.652 249.699,0 "
   id="polygon20" />
	<path
   d="m 175.983,114.397 c 0,0 -12.522,3.461 -23.303,9.845 -10.781,6.384 -19.823,15.693 -19.823,15.693 L 98.65,82.435 c 0,0 6.653,-12.348 17.642,-18.854 10.565,-6.257 25.482,-6.683 25.482,-6.683 z"
   id="path21" />
	<path
   fill="#666667"
   d="m 152.493,136.525 c 19.72,-12.891 41.243,-20.098 49.737,-16.902 -5.473,-2.507 -27.143,-10.826 -50.188,2.244 -23.858,13.531 -26.183,34.557 -26.165,42.379 1.076,-6.775 11.099,-17.577 26.616,-27.721 z"
   id="path22" />
	<path
   fill="#989898"
   d="m 205.773,125.483 c 0.139,-0.985 0.084,-1.885 -0.177,-2.681 -0.111,-0.342 -0.26,-0.665 -0.448,-0.967 -0.125,-0.201 -0.267,-0.394 -0.427,-0.578 -0.318,-0.367 -0.707,-0.697 -1.167,-0.988 -1.379,-0.871 -3.304,-1.323 -5.658,-1.393 -0.392,-0.012 -0.796,-0.012 -1.212,-0.003 -0.831,0.018 -1.708,0.08 -2.626,0.18 -0.459,0.051 -0.929,0.112 -1.408,0.182 -0.24,0.035 -0.481,0.073 -0.727,0.114 -0.488,0.081 -0.987,0.171 -1.494,0.271 -0.254,0.051 -0.51,0.102 -0.769,0.157 -0.516,0.109 -1.041,0.229 -1.574,0.358 -10.13,2.447 -23.218,8.3 -35.594,16.39 -12.051,7.876 -20.788,16.152 -24.596,22.63 -0.205,0.349 -0.397,0.694 -0.573,1.034 -0.177,0.339 -0.339,0.673 -0.486,1.001 -0.146,0.328 -0.278,0.65 -0.396,0.965 -0.41,1.104 -0.634,2.131 -0.66,3.066 -0.008,0.268 10e-4,0.527 0.026,0.78 0.147,1.511 0.884,2.74 2.263,3.611 7.357,4.647 30.218,-2.63 51.062,-16.256 0.651,-0.426 1.293,-0.853 1.924,-1.28 14.533,-9.838 23.808,-20.107 24.717,-26.593 z"
   id="path23" />
	<rect
   x="141.008"
   y="160.14"
   transform="matrix(0.7021,0.7121,-0.7121,0.7021,164.3516,-70.1016)"
   width="49.895"
   height="2.4549999"
   id="rect23" />
	
		<rect
   x="155.701"
   y="153.297"
   transform="matrix(-0.2491,-0.9685,0.9685,-0.2491,75.9908,367.9678)"
   width="49.894001"
   height="2.454"
   id="rect24" />
	<path
   d="m 182.736,172.197 -22.197,-40.319 c -0.891,0.273 -1.691,0.455 -2.214,1.07 l 22.261,40.433 z"
   id="path24-3" />
	<circle
   cx="184.314"
   cy="176.851"
   r="6.6620002"
   id="circle24" />
	<polygon
   fill="#666667"
   points="110.624,151.075 26.927,204.696 13.282,152.997 96.979,99.375 "
   id="polygon24" />
	<path
   d="m 97.479,128.201 2.529,3.574 23.545,-15.261 c -0.268,-0.568 -2.182,-3.293 -2.52,-3.79 z"
   id="path25" />
	<path
   d="m 157.986,89.501 2.529,3.574 23.546,-15.261 c -0.269,-0.569 -2.182,-3.294 -2.521,-3.791 z"
   id="path26" />
</g></g><path
     style="opacity:1;fill:#1a1a1a;fill-opacity:1;stroke:#000000;stroke-width:7.10844;stroke-dasharray:none;stroke-opacity:1;marker-end:url(#Triangle)"
     d="M 212.91643,396.68579 H 340.29672"
     id="path27"
     inkscape:label="path27" /><path
     style="fill:#1a1a1a;fill-opacity:1;stroke:#000000;stroke-width:7.1217;stroke-dasharray:none;stroke-opacity:1;marker-end:url(#Triangle-6)"
     d="M 585.5268,396.68579 H 713.38262"
     id="path27-1"
     inkscape:label="path27" /><text
     xml:space="preserve"
     style="font-style:normal;font-variant:normal;font-weight:normal;font-stretch:normal;font-size:27.5px;line-height:1;font-family:'Mononoki Nerd Font';-inkscape-font-specification:'Mononoki Nerd Font';text-align:end;text-anchor:end;opacity:1;fill:#000000;fill-opacity:1;stroke:#000000;stroke-width:1.005;stroke-dasharray:none;stroke-opacity:1"
     x="185.58858"
     y="531.5816"
     id="text1"><tspan
       sodipodi:role="line"
       id="tspan1"
       style="font-style:normal;font-variant:normal;font-weight:normal;font-stretch:normal;font-family:'Mononoki Nerd Font';-inkscape-font-specification:'Mononoki Nerd Font';fill:#000000;fill-opacity:1;stroke:#000000;stroke-width:1.005;stroke-dasharray:none;stroke-opacity:1"
       x="185.58858"
       y="531.5816">system()</tspan></text><text
     xml:space="preserve"
     style="font-style:normal;font-variant:normal;font-weight:normal;font-stretch:normal;font-size:27.5px;line-height:1;font-family:'Mononoki Nerd Font';-inkscape-font-specification:'Mononoki Nerd Font';text-align:end;text-anchor:end;opacity:1;fill:#000000;fill-opacity:1;stroke:#000000;stroke-width:1.005;stroke-dasharray:none;stroke-opacity:1"
     x="610.01483"
     y="531.85016"
     id="text2"><tspan
       sodipodi:role="line"
       id="tspan2"
       style="stroke-width:1.005"
       x="610.01483"
       y="531.85016">qgis_process run</tspan></text><text
     xml:space="preserve"
     style="font-style:normal;font-variant:normal;font-weight:normal;font-stretch:normal;font-size:27.5px;line-height:1;font-family:'Mononoki Nerd Font';-inkscape-font-specification:'Mononoki Nerd Font';text-align:end;text-anchor:end;opacity:1;fill:#000000;fill-opacity:1;stroke:#000000;stroke-width:1.005;stroke-dasharray:none;stroke-opacity:1"
     x="914.10657"
     y="531.60846"
     id="text3"><tspan
       sodipodi:role="line"
       id="tspan3"
       style="stroke-width:1.005"
       x="914.10657"
       y="531.60846">r.watershed</tspan></text></svg>
